<?xml version="1.0" encoding="UTF-8" standalone="no"?>
<!DOCTYPE svg PUBLIC "-//W3C//DTD SVG 1.1//EN"
 "http://www.w3.org/Graphics/SVG/1.1/DTD/svg11.dtd">
<!-- Generated by graphviz version 8.1.0 (20230707.0739)
 -->
<!-- Pages: 1 -->
<svg width="257pt" height="864pt"
 viewBox="0.00 0.00 257.04 864.00" xmlns="http://www.w3.org/2000/svg" xmlns:xlink="http://www.w3.org/1999/xlink">
<g id="graph0" class="graph" transform="scale(0.72 0.72) rotate(0) translate(4 1196)">
<polygon fill="white" stroke="none" points="-4,4 -4,-1196 353,-1196 353,4 -4,4"/>
<!-- 2311682851520 -->
<g id="node1" class="node">
<title>2311682851520</title>
<polygon fill="#caff70" stroke="black" points="205,-32 141,-32 141,0 205,0 205,-32"/>
<text text-anchor="middle" x="173" y="-6.5" font-family="monospace" font-size="10.00"> (1, 10)</text>
</g>
<!-- 2311824312544 -->
<g id="node2" class="node">
<title>2311824312544</title>
<polygon fill="lightgrey" stroke="black" points="217,-88 129,-88 129,-68 217,-68 217,-88"/>
<text text-anchor="middle" x="173" y="-74.5" font-family="monospace" font-size="10.00">SubBackward0</text>
</g>
<!-- 2311824312544&#45;&gt;2311682851520 -->
<g id="edge36" class="edge">
<title>2311824312544&#45;&gt;2311682851520</title>
<path fill="none" stroke="black" d="M173,-67.62C173,-61.02 173,-51.84 173,-43.11"/>
<polygon fill="black" stroke="black" points="176.5,-43.14 173,-33.14 169.5,-43.14 176.5,-43.14"/>
</g>
<!-- 2311824312592 -->
<g id="node3" class="node">
<title>2311824312592</title>
<polygon fill="lightgrey" stroke="black" points="229,-144 117,-144 117,-124 229,-124 229,-144"/>
<text text-anchor="middle" x="173" y="-130.5" font-family="monospace" font-size="10.00">SqueezeBackward1</text>
</g>
<!-- 2311824312592&#45;&gt;2311824312544 -->
<g id="edge1" class="edge">
<title>2311824312592&#45;&gt;2311824312544</title>
<path fill="none" stroke="black" d="M173,-123.59C173,-116.86 173,-107.53 173,-99.15"/>
<polygon fill="black" stroke="black" points="176.5,-99.3 173,-89.3 169.5,-99.3 176.5,-99.3"/>
</g>
<!-- 2311824312688 -->
<g id="node4" class="node">
<title>2311824312688</title>
<polygon fill="lightgrey" stroke="black" points="220,-200 126,-200 126,-180 220,-180 220,-200"/>
<text text-anchor="middle" x="173" y="-186.5" font-family="monospace" font-size="10.00">ViewBackward0</text>
</g>
<!-- 2311824312688&#45;&gt;2311824312592 -->
<g id="edge2" class="edge">
<title>2311824312688&#45;&gt;2311824312592</title>
<path fill="none" stroke="black" d="M173,-179.59C173,-172.86 173,-163.53 173,-155.15"/>
<polygon fill="black" stroke="black" points="176.5,-155.3 173,-145.3 169.5,-155.3 176.5,-155.3"/>
</g>
<!-- 2311824312784 -->
<g id="node5" class="node">
<title>2311824312784</title>
<polygon fill="lightgrey" stroke="black" points="223,-256 123,-256 123,-236 223,-236 223,-256"/>
<text text-anchor="middle" x="173" y="-242.5" font-family="monospace" font-size="10.00">AddmmBackward0</text>
</g>
<!-- 2311824312784&#45;&gt;2311824312688 -->
<g id="edge3" class="edge">
<title>2311824312784&#45;&gt;2311824312688</title>
<path fill="none" stroke="black" d="M173,-235.59C173,-228.86 173,-219.53 173,-211.15"/>
<polygon fill="black" stroke="black" points="176.5,-211.3 173,-201.3 169.5,-211.3 176.5,-211.3"/>
</g>
<!-- 2311824312976 -->
<g id="node6" class="node">
<title>2311824312976</title>
<polygon fill="lightgrey" stroke="black" points="108,-312 8,-312 8,-292 108,-292 108,-312"/>
<text text-anchor="middle" x="58" y="-298.5" font-family="monospace" font-size="10.00">AccumulateGrad</text>
</g>
<!-- 2311824312976&#45;&gt;2311824312784 -->
<g id="edge4" class="edge">
<title>2311824312976&#45;&gt;2311824312784</title>
<path fill="none" stroke="black" d="M78.03,-291.59C95.98,-283.17 122.55,-270.69 143.03,-261.07"/>
<polygon fill="black" stroke="black" points="144.25,-263.9 151.81,-256.48 141.27,-257.56 144.25,-263.9"/>
</g>
<!-- 2311823668864 -->
<g id="node7" class="node">
<title>2311823668864</title>
<polygon fill="lightblue" stroke="black" points="85,-380 31,-380 31,-348 85,-348 85,-380"/>
<text text-anchor="middle" x="58" y="-354.5" font-family="monospace" font-size="10.00"> (1)</text>
</g>
<!-- 2311823668864&#45;&gt;2311824312976 -->
<g id="edge5" class="edge">
<title>2311823668864&#45;&gt;2311824312976</title>
<path fill="none" stroke="black" d="M58,-347.55C58,-340.17 58,-331.24 58,-323.32"/>
<polygon fill="black" stroke="black" points="61.5,-323.41 58,-313.41 54.5,-323.41 61.5,-323.41"/>
</g>
<!-- 2311824312832 -->
<g id="node8" class="node">
<title>2311824312832</title>
<polygon fill="lightgrey" stroke="black" points="220,-312 126,-312 126,-292 220,-292 220,-312"/>
<text text-anchor="middle" x="173" y="-298.5" font-family="monospace" font-size="10.00">ViewBackward0</text>
</g>
<!-- 2311824312832&#45;&gt;2311824312784 -->
<g id="edge6" class="edge">
<title>2311824312832&#45;&gt;2311824312784</title>
<path fill="none" stroke="black" d="M173,-291.59C173,-284.86 173,-275.53 173,-267.15"/>
<polygon fill="black" stroke="black" points="176.5,-267.3 173,-257.3 169.5,-267.3 176.5,-267.3"/>
</g>
<!-- 2311824313072 -->
<g id="node9" class="node">
<title>2311824313072</title>
<polygon fill="lightgrey" stroke="black" points="231,-374 107,-374 107,-354 231,-354 231,-374"/>
<text text-anchor="middle" x="169" y="-360.5" font-family="monospace" font-size="10.00">LeakyReluBackward0</text>
</g>
<!-- 2311824313072&#45;&gt;2311824312832 -->
<g id="edge7" class="edge">
<title>2311824313072&#45;&gt;2311824312832</title>
<path fill="none" stroke="black" d="M169.62,-353.62C170.17,-345.48 170.97,-333.39 171.66,-323.07"/>
<polygon fill="black" stroke="black" points="175.22,-323.32 172.39,-313.11 168.23,-322.86 175.22,-323.32"/>
</g>
<!-- 2311824313312 -->
<g id="node10" class="node">
<title>2311824313312</title>
<polygon fill="lightgrey" stroke="black" points="216,-442 122,-442 122,-422 216,-422 216,-442"/>
<text text-anchor="middle" x="169" y="-428.5" font-family="monospace" font-size="10.00">ViewBackward0</text>
</g>
<!-- 2311824313312&#45;&gt;2311824313072 -->
<g id="edge8" class="edge">
<title>2311824313312&#45;&gt;2311824313072</title>
<path fill="none" stroke="black" d="M169,-421.54C169,-412.13 169,-397.39 169,-385.32"/>
<polygon fill="black" stroke="black" points="172.5,-385.44 169,-375.44 165.5,-385.44 172.5,-385.44"/>
</g>
<!-- 2311824313408 -->
<g id="node11" class="node">
<title>2311824313408</title>
<polygon fill="lightgrey" stroke="black" points="219,-504 119,-504 119,-484 219,-484 219,-504"/>
<text text-anchor="middle" x="169" y="-490.5" font-family="monospace" font-size="10.00">AddmmBackward0</text>
</g>
<!-- 2311824313408&#45;&gt;2311824313312 -->
<g id="edge9" class="edge">
<title>2311824313408&#45;&gt;2311824313312</title>
<path fill="none" stroke="black" d="M169,-483.62C169,-475.48 169,-463.39 169,-453.07"/>
<polygon fill="black" stroke="black" points="172.5,-453.11 169,-443.11 165.5,-453.11 172.5,-453.11"/>
</g>
<!-- 2311824313504 -->
<g id="node12" class="node">
<title>2311824313504</title>
<polygon fill="lightgrey" stroke="black" points="104,-560 4,-560 4,-540 104,-540 104,-560"/>
<text text-anchor="middle" x="54" y="-546.5" font-family="monospace" font-size="10.00">AccumulateGrad</text>
</g>
<!-- 2311824313504&#45;&gt;2311824313408 -->
<g id="edge10" class="edge">
<title>2311824313504&#45;&gt;2311824313408</title>
<path fill="none" stroke="black" d="M74.03,-539.59C91.98,-531.17 118.55,-518.69 139.03,-509.07"/>
<polygon fill="black" stroke="black" points="140.25,-511.9 147.81,-504.48 137.27,-505.56 140.25,-511.9"/>
</g>
<!-- 2311823668704 -->
<g id="node13" class="node">
<title>2311823668704</title>
<polygon fill="lightblue" stroke="black" points="81,-628 27,-628 27,-596 81,-596 81,-628"/>
<text text-anchor="middle" x="54" y="-602.5" font-family="monospace" font-size="10.00"> (64)</text>
</g>
<!-- 2311823668704&#45;&gt;2311824313504 -->
<g id="edge11" class="edge">
<title>2311823668704&#45;&gt;2311824313504</title>
<path fill="none" stroke="black" d="M54,-595.55C54,-588.17 54,-579.24 54,-571.32"/>
<polygon fill="black" stroke="black" points="57.5,-571.41 54,-561.41 50.5,-571.41 57.5,-571.41"/>
</g>
<!-- 2311824313456 -->
<g id="node14" class="node">
<title>2311824313456</title>
<polygon fill="lightgrey" stroke="black" points="216,-560 122,-560 122,-540 216,-540 216,-560"/>
<text text-anchor="middle" x="169" y="-546.5" font-family="monospace" font-size="10.00">ViewBackward0</text>
</g>
<!-- 2311824313456&#45;&gt;2311824313408 -->
<g id="edge12" class="edge">
<title>2311824313456&#45;&gt;2311824313408</title>
<path fill="none" stroke="black" d="M169,-539.59C169,-532.86 169,-523.53 169,-515.15"/>
<polygon fill="black" stroke="black" points="172.5,-515.3 169,-505.3 165.5,-515.3 172.5,-515.3"/>
</g>
<!-- 2311824313600 -->
<g id="node15" class="node">
<title>2311824313600</title>
<polygon fill="lightgrey" stroke="black" points="227,-622 103,-622 103,-602 227,-602 227,-622"/>
<text text-anchor="middle" x="165" y="-608.5" font-family="monospace" font-size="10.00">LeakyReluBackward0</text>
</g>
<!-- 2311824313600&#45;&gt;2311824313456 -->
<g id="edge13" class="edge">
<title>2311824313600&#45;&gt;2311824313456</title>
<path fill="none" stroke="black" d="M165.62,-601.62C166.17,-593.48 166.97,-581.39 167.66,-571.07"/>
<polygon fill="black" stroke="black" points="171.22,-571.32 168.39,-561.11 164.23,-570.86 171.22,-571.32"/>
</g>
<!-- 2311824312304 -->
<g id="node16" class="node">
<title>2311824312304</title>
<polygon fill="lightgrey" stroke="black" points="212,-690 118,-690 118,-670 212,-670 212,-690"/>
<text text-anchor="middle" x="165" y="-676.5" font-family="monospace" font-size="10.00">ViewBackward0</text>
</g>
<!-- 2311824312304&#45;&gt;2311824313600 -->
<g id="edge14" class="edge">
<title>2311824312304&#45;&gt;2311824313600</title>
<path fill="none" stroke="black" d="M165,-669.54C165,-660.13 165,-645.39 165,-633.32"/>
<polygon fill="black" stroke="black" points="168.5,-633.44 165,-623.44 161.5,-633.44 168.5,-633.44"/>
</g>
<!-- 2311824313840 -->
<g id="node17" class="node">
<title>2311824313840</title>
<polygon fill="lightgrey" stroke="black" points="215,-752 115,-752 115,-732 215,-732 215,-752"/>
<text text-anchor="middle" x="165" y="-738.5" font-family="monospace" font-size="10.00">AddmmBackward0</text>
</g>
<!-- 2311824313840&#45;&gt;2311824312304 -->
<g id="edge15" class="edge">
<title>2311824313840&#45;&gt;2311824312304</title>
<path fill="none" stroke="black" d="M165,-731.62C165,-723.48 165,-711.39 165,-701.07"/>
<polygon fill="black" stroke="black" points="168.5,-701.11 165,-691.11 161.5,-701.11 168.5,-701.11"/>
</g>
<!-- 2311824313888 -->
<g id="node18" class="node">
<title>2311824313888</title>
<polygon fill="lightgrey" stroke="black" points="100,-808 0,-808 0,-788 100,-788 100,-808"/>
<text text-anchor="middle" x="50" y="-794.5" font-family="monospace" font-size="10.00">AccumulateGrad</text>
</g>
<!-- 2311824313888&#45;&gt;2311824313840 -->
<g id="edge16" class="edge">
<title>2311824313888&#45;&gt;2311824313840</title>
<path fill="none" stroke="black" d="M70.03,-787.59C87.98,-779.17 114.55,-766.69 135.03,-757.07"/>
<polygon fill="black" stroke="black" points="136.25,-759.9 143.81,-752.48 133.27,-753.56 136.25,-759.9"/>
</g>
<!-- 2311823668544 -->
<g id="node19" class="node">
<title>2311823668544</title>
<polygon fill="lightblue" stroke="black" points="77,-876 23,-876 23,-844 77,-844 77,-876"/>
<text text-anchor="middle" x="50" y="-850.5" font-family="monospace" font-size="10.00"> (128)</text>
</g>
<!-- 2311823668544&#45;&gt;2311824313888 -->
<g id="edge17" class="edge">
<title>2311823668544&#45;&gt;2311824313888</title>
<path fill="none" stroke="black" d="M50,-843.55C50,-836.17 50,-827.24 50,-819.32"/>
<polygon fill="black" stroke="black" points="53.5,-819.41 50,-809.41 46.5,-819.41 53.5,-819.41"/>
</g>
<!-- 2311824312400 -->
<g id="node20" class="node">
<title>2311824312400</title>
<polygon fill="lightgrey" stroke="black" points="212,-808 118,-808 118,-788 212,-788 212,-808"/>
<text text-anchor="middle" x="165" y="-794.5" font-family="monospace" font-size="10.00">ViewBackward0</text>
</g>
<!-- 2311824312400&#45;&gt;2311824313840 -->
<g id="edge18" class="edge">
<title>2311824312400&#45;&gt;2311824313840</title>
<path fill="none" stroke="black" d="M165,-787.59C165,-780.86 165,-771.53 165,-763.15"/>
<polygon fill="black" stroke="black" points="168.5,-763.3 165,-753.3 161.5,-763.3 168.5,-763.3"/>
</g>
<!-- 2311824313936 -->
<g id="node21" class="node">
<title>2311824313936</title>
<polygon fill="lightgrey" stroke="black" points="223,-870 99,-870 99,-850 223,-850 223,-870"/>
<text text-anchor="middle" x="161" y="-856.5" font-family="monospace" font-size="10.00">LeakyReluBackward0</text>
</g>
<!-- 2311824313936&#45;&gt;2311824312400 -->
<g id="edge19" class="edge">
<title>2311824313936&#45;&gt;2311824312400</title>
<path fill="none" stroke="black" d="M161.62,-849.62C162.17,-841.48 162.97,-829.39 163.66,-819.07"/>
<polygon fill="black" stroke="black" points="167.22,-819.32 164.39,-809.11 160.23,-818.86 167.22,-819.32"/>
</g>
<!-- 2311824314128 -->
<g id="node22" class="node">
<title>2311824314128</title>
<polygon fill="lightgrey" stroke="black" points="208,-938 114,-938 114,-918 208,-918 208,-938"/>
<text text-anchor="middle" x="161" y="-924.5" font-family="monospace" font-size="10.00">ViewBackward0</text>
</g>
<!-- 2311824314128&#45;&gt;2311824313936 -->
<g id="edge20" class="edge">
<title>2311824314128&#45;&gt;2311824313936</title>
<path fill="none" stroke="black" d="M161,-917.54C161,-908.13 161,-893.39 161,-881.32"/>
<polygon fill="black" stroke="black" points="164.5,-881.44 161,-871.44 157.5,-881.44 164.5,-881.44"/>
</g>
<!-- 2311824314224 -->
<g id="node23" class="node">
<title>2311824314224</title>
<polygon fill="lightgrey" stroke="black" points="211,-1000 111,-1000 111,-980 211,-980 211,-1000"/>
<text text-anchor="middle" x="161" y="-986.5" font-family="monospace" font-size="10.00">AddmmBackward0</text>
</g>
<!-- 2311824314224&#45;&gt;2311824314128 -->
<g id="edge21" class="edge">
<title>2311824314224&#45;&gt;2311824314128</title>
<path fill="none" stroke="black" d="M161,-979.62C161,-971.48 161,-959.39 161,-949.07"/>
<polygon fill="black" stroke="black" points="164.5,-949.11 161,-939.11 157.5,-949.11 164.5,-949.11"/>
</g>
<!-- 2311824312928 -->
<g id="node24" class="node">
<title>2311824312928</title>
<polygon fill="lightgrey" stroke="black" points="158,-1056 58,-1056 58,-1036 158,-1036 158,-1056"/>
<text text-anchor="middle" x="108" y="-1042.5" font-family="monospace" font-size="10.00">AccumulateGrad</text>
</g>
<!-- 2311824312928&#45;&gt;2311824314224 -->
<g id="edge22" class="edge">
<title>2311824312928&#45;&gt;2311824314224</title>
<path fill="none" stroke="black" d="M117.23,-1035.59C124.68,-1028.01 135.35,-1017.13 144.29,-1008.02"/>
<polygon fill="black" stroke="black" points="146.37,-1010.89 150.87,-1001.3 141.37,-1005.98 146.37,-1010.89"/>
</g>
<!-- 2311823668384 -->
<g id="node25" class="node">
<title>2311823668384</title>
<polygon fill="lightblue" stroke="black" points="135,-1124 81,-1124 81,-1092 135,-1092 135,-1124"/>
<text text-anchor="middle" x="108" y="-1098.5" font-family="monospace" font-size="10.00"> (128)</text>
</g>
<!-- 2311823668384&#45;&gt;2311824312928 -->
<g id="edge23" class="edge">
<title>2311823668384&#45;&gt;2311824312928</title>
<path fill="none" stroke="black" d="M108,-1091.55C108,-1084.17 108,-1075.24 108,-1067.32"/>
<polygon fill="black" stroke="black" points="111.5,-1067.41 108,-1057.41 104.5,-1067.41 111.5,-1067.41"/>
</g>
<!-- 2311824314272 -->
<g id="node26" class="node">
<title>2311824314272</title>
<polygon fill="lightgrey" stroke="black" points="252,-1056 176,-1056 176,-1036 252,-1036 252,-1056"/>
<text text-anchor="middle" x="214" y="-1042.5" font-family="monospace" font-size="10.00">TBackward0</text>
</g>
<!-- 2311824314272&#45;&gt;2311824314224 -->
<g id="edge24" class="edge">
<title>2311824314272&#45;&gt;2311824314224</title>
<path fill="none" stroke="black" d="M204.77,-1035.59C197.32,-1028.01 186.65,-1017.13 177.71,-1008.02"/>
<polygon fill="black" stroke="black" points="180.63,-1005.98 171.13,-1001.3 175.63,-1010.89 180.63,-1005.98"/>
</g>
<!-- 2311824312880 -->
<g id="node27" class="node">
<title>2311824312880</title>
<polygon fill="lightgrey" stroke="black" points="264,-1118 164,-1118 164,-1098 264,-1098 264,-1118"/>
<text text-anchor="middle" x="214" y="-1104.5" font-family="monospace" font-size="10.00">AccumulateGrad</text>
</g>
<!-- 2311824312880&#45;&gt;2311824314272 -->
<g id="edge25" class="edge">
<title>2311824312880&#45;&gt;2311824314272</title>
<path fill="none" stroke="black" d="M214,-1097.62C214,-1089.48 214,-1077.39 214,-1067.07"/>
<polygon fill="black" stroke="black" points="217.5,-1067.11 214,-1057.11 210.5,-1067.11 217.5,-1067.11"/>
</g>
<!-- 2311823668304 -->
<g id="node28" class="node">
<title>2311823668304</title>
<polygon fill="lightblue" stroke="black" points="249,-1192 179,-1192 179,-1160 249,-1160 249,-1192"/>
<text text-anchor="middle" x="214" y="-1166.5" font-family="monospace" font-size="10.00"> (128, 5)</text>
</g>
<!-- 2311823668304&#45;&gt;2311824312880 -->
<g id="edge26" class="edge">
<title>2311823668304&#45;&gt;2311824312880</title>
<path fill="none" stroke="black" d="M214,-1159.69C214,-1150.6 214,-1138.95 214,-1129.12"/>
<polygon fill="black" stroke="black" points="217.5,-1129.32 214,-1119.32 210.5,-1129.32 217.5,-1129.32"/>
</g>
<!-- 2311824313696 -->
<g id="node29" class="node">
<title>2311824313696</title>
<polygon fill="lightgrey" stroke="black" points="317,-808 241,-808 241,-788 317,-788 317,-808"/>
<text text-anchor="middle" x="279" y="-794.5" font-family="monospace" font-size="10.00">TBackward0</text>
</g>
<!-- 2311824313696&#45;&gt;2311824313840 -->
<g id="edge27" class="edge">
<title>2311824313696&#45;&gt;2311824313840</title>
<path fill="none" stroke="black" d="M259.14,-787.59C241.35,-779.17 215.01,-766.69 194.71,-757.07"/>
<polygon fill="black" stroke="black" points="196.55,-753.6 186.01,-752.48 193.55,-759.92 196.55,-753.6"/>
</g>
<!-- 2311824314176 -->
<g id="node30" class="node">
<title>2311824314176</title>
<polygon fill="lightgrey" stroke="black" points="341,-870 241,-870 241,-850 341,-850 341,-870"/>
<text text-anchor="middle" x="291" y="-856.5" font-family="monospace" font-size="10.00">AccumulateGrad</text>
</g>
<!-- 2311824314176&#45;&gt;2311824313696 -->
<g id="edge28" class="edge">
<title>2311824314176&#45;&gt;2311824313696</title>
<path fill="none" stroke="black" d="M289.12,-849.62C287.48,-841.39 285.03,-829.13 282.95,-818.74"/>
<polygon fill="black" stroke="black" points="286.22,-818.23 280.82,-809.11 279.35,-819.6 286.22,-818.23"/>
</g>
<!-- 2311823668464 -->
<g id="node31" class="node">
<title>2311823668464</title>
<polygon fill="lightblue" stroke="black" points="332,-944 250,-944 250,-912 332,-912 332,-944"/>
<text text-anchor="middle" x="291" y="-918.5" font-family="monospace" font-size="10.00"> (128, 128)</text>
</g>
<!-- 2311823668464&#45;&gt;2311824314176 -->
<g id="edge29" class="edge">
<title>2311823668464&#45;&gt;2311824314176</title>
<path fill="none" stroke="black" d="M291,-911.69C291,-902.6 291,-890.95 291,-881.12"/>
<polygon fill="black" stroke="black" points="294.5,-881.32 291,-871.32 287.5,-881.32 294.5,-881.32"/>
</g>
<!-- 2311824313216 -->
<g id="node32" class="node">
<title>2311824313216</title>
<polygon fill="lightgrey" stroke="black" points="321,-560 245,-560 245,-540 321,-540 321,-560"/>
<text text-anchor="middle" x="283" y="-546.5" font-family="monospace" font-size="10.00">TBackward0</text>
</g>
<!-- 2311824313216&#45;&gt;2311824313408 -->
<g id="edge30" class="edge">
<title>2311824313216&#45;&gt;2311824313408</title>
<path fill="none" stroke="black" d="M263.14,-539.59C245.35,-531.17 219.01,-518.69 198.71,-509.07"/>
<polygon fill="black" stroke="black" points="200.55,-505.6 190.01,-504.48 197.55,-511.92 200.55,-505.6"/>
</g>
<!-- 2311824313792 -->
<g id="node33" class="node">
<title>2311824313792</title>
<polygon fill="lightgrey" stroke="black" points="345,-622 245,-622 245,-602 345,-602 345,-622"/>
<text text-anchor="middle" x="295" y="-608.5" font-family="monospace" font-size="10.00">AccumulateGrad</text>
</g>
<!-- 2311824313792&#45;&gt;2311824313216 -->
<g id="edge31" class="edge">
<title>2311824313792&#45;&gt;2311824313216</title>
<path fill="none" stroke="black" d="M293.12,-601.62C291.48,-593.39 289.03,-581.13 286.95,-570.74"/>
<polygon fill="black" stroke="black" points="290.22,-570.23 284.82,-561.11 283.35,-571.6 290.22,-570.23"/>
</g>
<!-- 2311823668624 -->
<g id="node34" class="node">
<title>2311823668624</title>
<polygon fill="lightblue" stroke="black" points="333,-696 257,-696 257,-664 333,-664 333,-696"/>
<text text-anchor="middle" x="295" y="-670.5" font-family="monospace" font-size="10.00"> (64, 128)</text>
</g>
<!-- 2311823668624&#45;&gt;2311824313792 -->
<g id="edge32" class="edge">
<title>2311823668624&#45;&gt;2311824313792</title>
<path fill="none" stroke="black" d="M295,-663.69C295,-654.6 295,-642.95 295,-633.12"/>
<polygon fill="black" stroke="black" points="298.5,-633.32 295,-623.32 291.5,-633.32 298.5,-633.32"/>
</g>
<!-- 2311824312352 -->
<g id="node35" class="node">
<title>2311824312352</title>
<polygon fill="lightgrey" stroke="black" points="323,-312 247,-312 247,-292 323,-292 323,-312"/>
<text text-anchor="middle" x="285" y="-298.5" font-family="monospace" font-size="10.00">TBackward0</text>
</g>
<!-- 2311824312352&#45;&gt;2311824312784 -->
<g id="edge33" class="edge">
<title>2311824312352&#45;&gt;2311824312784</title>
<path fill="none" stroke="black" d="M265.49,-291.59C248.09,-283.21 222.37,-270.8 202.46,-261.21"/>
<polygon fill="black" stroke="black" points="204.19,-257.67 193.66,-256.48 201.15,-263.98 204.19,-257.67"/>
</g>
<!-- 2311824313360 -->
<g id="node36" class="node">
<title>2311824313360</title>
<polygon fill="lightgrey" stroke="black" points="349,-374 249,-374 249,-354 349,-354 349,-374"/>
<text text-anchor="middle" x="299" y="-360.5" font-family="monospace" font-size="10.00">AccumulateGrad</text>
</g>
<!-- 2311824313360&#45;&gt;2311824312352 -->
<g id="edge34" class="edge">
<title>2311824313360&#45;&gt;2311824312352</title>
<path fill="none" stroke="black" d="M296.81,-353.62C294.89,-345.39 292.03,-333.13 289.61,-322.74"/>
<polygon fill="black" stroke="black" points="292.81,-322.06 287.13,-313.11 285.99,-323.65 292.81,-322.06"/>
</g>
<!-- 2311823668784 -->
<g id="node37" class="node">
<title>2311823668784</title>
<polygon fill="lightblue" stroke="black" points="331,-448 267,-448 267,-416 331,-416 331,-448"/>
<text text-anchor="middle" x="299" y="-422.5" font-family="monospace" font-size="10.00"> (1, 64)</text>
</g>
<!-- 2311823668784&#45;&gt;2311824313360 -->
<g id="edge35" class="edge">
<title>2311823668784&#45;&gt;2311824313360</title>
<path fill="none" stroke="black" d="M299,-415.69C299,-406.6 299,-394.95 299,-385.12"/>
<polygon fill="black" stroke="black" points="302.5,-385.32 299,-375.32 295.5,-385.32 302.5,-385.32"/>
</g>
</g>
</svg>
