<?xml version="1.0" encoding="UTF-8" standalone="no"?>
<!DOCTYPE svg PUBLIC "-//W3C//DTD SVG 1.1//EN"
 "http://www.w3.org/Graphics/SVG/1.1/DTD/svg11.dtd">
<!-- Generated by graphviz version 8.1.0 (20230707.0739)
 -->
<!-- Pages: 1 -->
<svg width="208pt" height="961pt"
 viewBox="0.00 0.00 208.18 961.00" xmlns="http://www.w3.org/2000/svg" xmlns:xlink="http://www.w3.org/1999/xlink">
<g id="graph0" class="graph" transform="scale(0.583131 0.583131) rotate(0) translate(4 1644)">
<polygon fill="white" stroke="none" points="-4,4 -4,-1644 353,-1644 353,4 -4,4"/>
<!-- 2311682852640 -->
<g id="node1" class="node">
<title>2311682852640</title>
<polygon fill="#caff70" stroke="black" points="205,-32 141,-32 141,0 205,0 205,-32"/>
<text text-anchor="middle" x="173" y="-6.5" font-family="monospace" font-size="10.00"> (1, 10)</text>
</g>
<!-- 2311824081920 -->
<g id="node2" class="node">
<title>2311824081920</title>
<polygon fill="lightgrey" stroke="black" points="217,-88 129,-88 129,-68 217,-68 217,-88"/>
<text text-anchor="middle" x="173" y="-74.5" font-family="monospace" font-size="10.00">SubBackward0</text>
</g>
<!-- 2311824081920&#45;&gt;2311682852640 -->
<g id="edge44" class="edge">
<title>2311824081920&#45;&gt;2311682852640</title>
<path fill="none" stroke="black" d="M173,-67.62C173,-61.02 173,-51.84 173,-43.11"/>
<polygon fill="black" stroke="black" points="176.5,-43.14 173,-33.14 169.5,-43.14 176.5,-43.14"/>
</g>
<!-- 2311824081680 -->
<g id="node3" class="node">
<title>2311824081680</title>
<polygon fill="lightgrey" stroke="black" points="217,-144 129,-144 129,-124 217,-124 217,-144"/>
<text text-anchor="middle" x="173" y="-130.5" font-family="monospace" font-size="10.00">SubBackward0</text>
</g>
<!-- 2311824081680&#45;&gt;2311824081920 -->
<g id="edge1" class="edge">
<title>2311824081680&#45;&gt;2311824081920</title>
<path fill="none" stroke="black" d="M173,-123.59C173,-116.86 173,-107.53 173,-99.15"/>
<polygon fill="black" stroke="black" points="176.5,-99.3 173,-89.3 169.5,-99.3 176.5,-99.3"/>
</g>
<!-- 2311824083360 -->
<g id="node4" class="node">
<title>2311824083360</title>
<polygon fill="lightgrey" stroke="black" points="217,-200 129,-200 129,-180 217,-180 217,-200"/>
<text text-anchor="middle" x="173" y="-186.5" font-family="monospace" font-size="10.00">DivBackward0</text>
</g>
<!-- 2311824083360&#45;&gt;2311824081680 -->
<g id="edge2" class="edge">
<title>2311824083360&#45;&gt;2311824081680</title>
<path fill="none" stroke="black" d="M173,-179.59C173,-172.86 173,-163.53 173,-155.15"/>
<polygon fill="black" stroke="black" points="176.5,-155.3 173,-145.3 169.5,-155.3 176.5,-155.3"/>
</g>
<!-- 2311824081968 -->
<g id="node5" class="node">
<title>2311824081968</title>
<polygon fill="lightgrey" stroke="black" points="217,-256 129,-256 129,-236 217,-236 217,-256"/>
<text text-anchor="middle" x="173" y="-242.5" font-family="monospace" font-size="10.00">NegBackward0</text>
</g>
<!-- 2311824081968&#45;&gt;2311824083360 -->
<g id="edge3" class="edge">
<title>2311824081968&#45;&gt;2311824083360</title>
<path fill="none" stroke="black" d="M173,-235.59C173,-228.86 173,-219.53 173,-211.15"/>
<polygon fill="black" stroke="black" points="176.5,-211.3 173,-201.3 169.5,-211.3 176.5,-211.3"/>
</g>
<!-- 2311824083504 -->
<g id="node6" class="node">
<title>2311824083504</title>
<polygon fill="lightgrey" stroke="black" points="217,-312 129,-312 129,-292 217,-292 217,-312"/>
<text text-anchor="middle" x="173" y="-298.5" font-family="monospace" font-size="10.00">PowBackward0</text>
</g>
<!-- 2311824083504&#45;&gt;2311824081968 -->
<g id="edge4" class="edge">
<title>2311824083504&#45;&gt;2311824081968</title>
<path fill="none" stroke="black" d="M173,-291.59C173,-284.86 173,-275.53 173,-267.15"/>
<polygon fill="black" stroke="black" points="176.5,-267.3 173,-257.3 169.5,-267.3 176.5,-267.3"/>
</g>
<!-- 2311824083600 -->
<g id="node7" class="node">
<title>2311824083600</title>
<polygon fill="lightgrey" stroke="black" points="217,-368 129,-368 129,-348 217,-348 217,-368"/>
<text text-anchor="middle" x="173" y="-354.5" font-family="monospace" font-size="10.00">SubBackward0</text>
</g>
<!-- 2311824083600&#45;&gt;2311824083504 -->
<g id="edge5" class="edge">
<title>2311824083600&#45;&gt;2311824083504</title>
<path fill="none" stroke="black" d="M173,-347.59C173,-340.86 173,-331.53 173,-323.15"/>
<polygon fill="black" stroke="black" points="176.5,-323.3 173,-313.3 169.5,-323.3 176.5,-323.3"/>
</g>
<!-- 2311824083696 -->
<g id="node8" class="node">
<title>2311824083696</title>
<polygon fill="lightgrey" stroke="black" points="226,-424 120,-424 120,-404 226,-404 226,-424"/>
<text text-anchor="middle" x="173" y="-410.5" font-family="monospace" font-size="10.00">SelectBackward0</text>
</g>
<!-- 2311824083696&#45;&gt;2311824083600 -->
<g id="edge6" class="edge">
<title>2311824083696&#45;&gt;2311824083600</title>
<path fill="none" stroke="black" d="M173,-403.59C173,-396.86 173,-387.53 173,-379.15"/>
<polygon fill="black" stroke="black" points="176.5,-379.3 173,-369.3 169.5,-379.3 176.5,-379.3"/>
</g>
<!-- 2311824083792 -->
<g id="node9" class="node">
<title>2311824083792</title>
<polygon fill="lightgrey" stroke="black" points="223,-480 123,-480 123,-460 223,-460 223,-480"/>
<text text-anchor="middle" x="173" y="-466.5" font-family="monospace" font-size="10.00">SliceBackward0</text>
</g>
<!-- 2311824083792&#45;&gt;2311824083696 -->
<g id="edge7" class="edge">
<title>2311824083792&#45;&gt;2311824083696</title>
<path fill="none" stroke="black" d="M173,-459.59C173,-452.86 173,-443.53 173,-435.15"/>
<polygon fill="black" stroke="black" points="176.5,-435.3 173,-425.3 169.5,-435.3 176.5,-435.3"/>
</g>
<!-- 2311824083888 -->
<g id="node10" class="node">
<title>2311824083888</title>
<polygon fill="lightgrey" stroke="black" points="223,-536 123,-536 123,-516 223,-516 223,-536"/>
<text text-anchor="middle" x="173" y="-522.5" font-family="monospace" font-size="10.00">SliceBackward0</text>
</g>
<!-- 2311824083888&#45;&gt;2311824083792 -->
<g id="edge8" class="edge">
<title>2311824083888&#45;&gt;2311824083792</title>
<path fill="none" stroke="black" d="M173,-515.59C173,-508.86 173,-499.53 173,-491.15"/>
<polygon fill="black" stroke="black" points="176.5,-491.3 173,-481.3 169.5,-491.3 176.5,-491.3"/>
</g>
<!-- 2311824083984 -->
<g id="node11" class="node">
<title>2311824083984</title>
<polygon fill="lightgrey" stroke="black" points="220,-592 126,-592 126,-572 220,-572 220,-592"/>
<text text-anchor="middle" x="173" y="-578.5" font-family="monospace" font-size="10.00">TanhBackward0</text>
</g>
<!-- 2311824083984&#45;&gt;2311824083888 -->
<g id="edge9" class="edge">
<title>2311824083984&#45;&gt;2311824083888</title>
<path fill="none" stroke="black" d="M173,-571.59C173,-564.86 173,-555.53 173,-547.15"/>
<polygon fill="black" stroke="black" points="176.5,-547.3 173,-537.3 169.5,-547.3 176.5,-547.3"/>
</g>
<!-- 2311824084080 -->
<g id="node12" class="node">
<title>2311824084080</title>
<polygon fill="lightgrey" stroke="black" points="220,-648 126,-648 126,-628 220,-628 220,-648"/>
<text text-anchor="middle" x="173" y="-634.5" font-family="monospace" font-size="10.00">ViewBackward0</text>
</g>
<!-- 2311824084080&#45;&gt;2311824083984 -->
<g id="edge10" class="edge">
<title>2311824084080&#45;&gt;2311824083984</title>
<path fill="none" stroke="black" d="M173,-627.59C173,-620.86 173,-611.53 173,-603.15"/>
<polygon fill="black" stroke="black" points="176.5,-603.3 173,-593.3 169.5,-603.3 176.5,-603.3"/>
</g>
<!-- 2311824084176 -->
<g id="node13" class="node">
<title>2311824084176</title>
<polygon fill="lightgrey" stroke="black" points="223,-704 123,-704 123,-684 223,-684 223,-704"/>
<text text-anchor="middle" x="173" y="-690.5" font-family="monospace" font-size="10.00">AddmmBackward0</text>
</g>
<!-- 2311824084176&#45;&gt;2311824084080 -->
<g id="edge11" class="edge">
<title>2311824084176&#45;&gt;2311824084080</title>
<path fill="none" stroke="black" d="M173,-683.59C173,-676.86 173,-667.53 173,-659.15"/>
<polygon fill="black" stroke="black" points="176.5,-659.3 173,-649.3 169.5,-659.3 176.5,-659.3"/>
</g>
<!-- 2311824084272 -->
<g id="node14" class="node">
<title>2311824084272</title>
<polygon fill="lightgrey" stroke="black" points="108,-760 8,-760 8,-740 108,-740 108,-760"/>
<text text-anchor="middle" x="58" y="-746.5" font-family="monospace" font-size="10.00">AccumulateGrad</text>
</g>
<!-- 2311824084272&#45;&gt;2311824084176 -->
<g id="edge12" class="edge">
<title>2311824084272&#45;&gt;2311824084176</title>
<path fill="none" stroke="black" d="M78.03,-739.59C95.98,-731.17 122.55,-718.69 143.03,-709.07"/>
<polygon fill="black" stroke="black" points="144.25,-711.9 151.81,-704.48 141.27,-705.56 144.25,-711.9"/>
</g>
<!-- 2311823670144 -->
<g id="node15" class="node">
<title>2311823670144</title>
<polygon fill="lightblue" stroke="black" points="85,-828 31,-828 31,-796 85,-796 85,-828"/>
<text text-anchor="middle" x="58" y="-802.5" font-family="monospace" font-size="10.00"> (1)</text>
</g>
<!-- 2311823670144&#45;&gt;2311824084272 -->
<g id="edge13" class="edge">
<title>2311823670144&#45;&gt;2311824084272</title>
<path fill="none" stroke="black" d="M58,-795.55C58,-788.17 58,-779.24 58,-771.32"/>
<polygon fill="black" stroke="black" points="61.5,-771.41 58,-761.41 54.5,-771.41 61.5,-771.41"/>
</g>
<!-- 2311824084224 -->
<g id="node16" class="node">
<title>2311824084224</title>
<polygon fill="lightgrey" stroke="black" points="220,-760 126,-760 126,-740 220,-740 220,-760"/>
<text text-anchor="middle" x="173" y="-746.5" font-family="monospace" font-size="10.00">ViewBackward0</text>
</g>
<!-- 2311824084224&#45;&gt;2311824084176 -->
<g id="edge14" class="edge">
<title>2311824084224&#45;&gt;2311824084176</title>
<path fill="none" stroke="black" d="M173,-739.59C173,-732.86 173,-723.53 173,-715.15"/>
<polygon fill="black" stroke="black" points="176.5,-715.3 173,-705.3 169.5,-715.3 176.5,-715.3"/>
</g>
<!-- 2311824084368 -->
<g id="node17" class="node">
<title>2311824084368</title>
<polygon fill="lightgrey" stroke="black" points="231,-822 107,-822 107,-802 231,-802 231,-822"/>
<text text-anchor="middle" x="169" y="-808.5" font-family="monospace" font-size="10.00">LeakyReluBackward0</text>
</g>
<!-- 2311824084368&#45;&gt;2311824084224 -->
<g id="edge15" class="edge">
<title>2311824084368&#45;&gt;2311824084224</title>
<path fill="none" stroke="black" d="M169.62,-801.62C170.17,-793.48 170.97,-781.39 171.66,-771.07"/>
<polygon fill="black" stroke="black" points="175.22,-771.32 172.39,-761.11 168.23,-770.86 175.22,-771.32"/>
</g>
<!-- 2311824084560 -->
<g id="node18" class="node">
<title>2311824084560</title>
<polygon fill="lightgrey" stroke="black" points="216,-890 122,-890 122,-870 216,-870 216,-890"/>
<text text-anchor="middle" x="169" y="-876.5" font-family="monospace" font-size="10.00">ViewBackward0</text>
</g>
<!-- 2311824084560&#45;&gt;2311824084368 -->
<g id="edge16" class="edge">
<title>2311824084560&#45;&gt;2311824084368</title>
<path fill="none" stroke="black" d="M169,-869.54C169,-860.13 169,-845.39 169,-833.32"/>
<polygon fill="black" stroke="black" points="172.5,-833.44 169,-823.44 165.5,-833.44 172.5,-833.44"/>
</g>
<!-- 2311824084656 -->
<g id="node19" class="node">
<title>2311824084656</title>
<polygon fill="lightgrey" stroke="black" points="219,-952 119,-952 119,-932 219,-932 219,-952"/>
<text text-anchor="middle" x="169" y="-938.5" font-family="monospace" font-size="10.00">AddmmBackward0</text>
</g>
<!-- 2311824084656&#45;&gt;2311824084560 -->
<g id="edge17" class="edge">
<title>2311824084656&#45;&gt;2311824084560</title>
<path fill="none" stroke="black" d="M169,-931.62C169,-923.48 169,-911.39 169,-901.07"/>
<polygon fill="black" stroke="black" points="172.5,-901.11 169,-891.11 165.5,-901.11 172.5,-901.11"/>
</g>
<!-- 2311824084752 -->
<g id="node20" class="node">
<title>2311824084752</title>
<polygon fill="lightgrey" stroke="black" points="104,-1008 4,-1008 4,-988 104,-988 104,-1008"/>
<text text-anchor="middle" x="54" y="-994.5" font-family="monospace" font-size="10.00">AccumulateGrad</text>
</g>
<!-- 2311824084752&#45;&gt;2311824084656 -->
<g id="edge18" class="edge">
<title>2311824084752&#45;&gt;2311824084656</title>
<path fill="none" stroke="black" d="M74.03,-987.59C91.98,-979.17 118.55,-966.69 139.03,-957.07"/>
<polygon fill="black" stroke="black" points="140.25,-959.9 147.81,-952.48 137.27,-953.56 140.25,-959.9"/>
</g>
<!-- 2311823669984 -->
<g id="node21" class="node">
<title>2311823669984</title>
<polygon fill="lightblue" stroke="black" points="81,-1076 27,-1076 27,-1044 81,-1044 81,-1076"/>
<text text-anchor="middle" x="54" y="-1050.5" font-family="monospace" font-size="10.00"> (64)</text>
</g>
<!-- 2311823669984&#45;&gt;2311824084752 -->
<g id="edge19" class="edge">
<title>2311823669984&#45;&gt;2311824084752</title>
<path fill="none" stroke="black" d="M54,-1043.55C54,-1036.17 54,-1027.24 54,-1019.32"/>
<polygon fill="black" stroke="black" points="57.5,-1019.41 54,-1009.41 50.5,-1019.41 57.5,-1019.41"/>
</g>
<!-- 2311824084704 -->
<g id="node22" class="node">
<title>2311824084704</title>
<polygon fill="lightgrey" stroke="black" points="216,-1008 122,-1008 122,-988 216,-988 216,-1008"/>
<text text-anchor="middle" x="169" y="-994.5" font-family="monospace" font-size="10.00">ViewBackward0</text>
</g>
<!-- 2311824084704&#45;&gt;2311824084656 -->
<g id="edge20" class="edge">
<title>2311824084704&#45;&gt;2311824084656</title>
<path fill="none" stroke="black" d="M169,-987.59C169,-980.86 169,-971.53 169,-963.15"/>
<polygon fill="black" stroke="black" points="172.5,-963.3 169,-953.3 165.5,-963.3 172.5,-963.3"/>
</g>
<!-- 2311824084848 -->
<g id="node23" class="node">
<title>2311824084848</title>
<polygon fill="lightgrey" stroke="black" points="227,-1070 103,-1070 103,-1050 227,-1050 227,-1070"/>
<text text-anchor="middle" x="165" y="-1056.5" font-family="monospace" font-size="10.00">LeakyReluBackward0</text>
</g>
<!-- 2311824084848&#45;&gt;2311824084704 -->
<g id="edge21" class="edge">
<title>2311824084848&#45;&gt;2311824084704</title>
<path fill="none" stroke="black" d="M165.62,-1049.62C166.17,-1041.48 166.97,-1029.39 167.66,-1019.07"/>
<polygon fill="black" stroke="black" points="171.22,-1019.32 168.39,-1009.11 164.23,-1018.86 171.22,-1019.32"/>
</g>
<!-- 2311824084944 -->
<g id="node24" class="node">
<title>2311824084944</title>
<polygon fill="lightgrey" stroke="black" points="212,-1138 118,-1138 118,-1118 212,-1118 212,-1138"/>
<text text-anchor="middle" x="165" y="-1124.5" font-family="monospace" font-size="10.00">ViewBackward0</text>
</g>
<!-- 2311824084944&#45;&gt;2311824084848 -->
<g id="edge22" class="edge">
<title>2311824084944&#45;&gt;2311824084848</title>
<path fill="none" stroke="black" d="M165,-1117.54C165,-1108.13 165,-1093.39 165,-1081.32"/>
<polygon fill="black" stroke="black" points="168.5,-1081.44 165,-1071.44 161.5,-1081.44 168.5,-1081.44"/>
</g>
<!-- 2311824097488 -->
<g id="node25" class="node">
<title>2311824097488</title>
<polygon fill="lightgrey" stroke="black" points="215,-1200 115,-1200 115,-1180 215,-1180 215,-1200"/>
<text text-anchor="middle" x="165" y="-1186.5" font-family="monospace" font-size="10.00">AddmmBackward0</text>
</g>
<!-- 2311824097488&#45;&gt;2311824084944 -->
<g id="edge23" class="edge">
<title>2311824097488&#45;&gt;2311824084944</title>
<path fill="none" stroke="black" d="M165,-1179.62C165,-1171.48 165,-1159.39 165,-1149.07"/>
<polygon fill="black" stroke="black" points="168.5,-1149.11 165,-1139.11 161.5,-1149.11 168.5,-1149.11"/>
</g>
<!-- 2311824097584 -->
<g id="node26" class="node">
<title>2311824097584</title>
<polygon fill="lightgrey" stroke="black" points="100,-1256 0,-1256 0,-1236 100,-1236 100,-1256"/>
<text text-anchor="middle" x="50" y="-1242.5" font-family="monospace" font-size="10.00">AccumulateGrad</text>
</g>
<!-- 2311824097584&#45;&gt;2311824097488 -->
<g id="edge24" class="edge">
<title>2311824097584&#45;&gt;2311824097488</title>
<path fill="none" stroke="black" d="M70.03,-1235.59C87.98,-1227.17 114.55,-1214.69 135.03,-1205.07"/>
<polygon fill="black" stroke="black" points="136.25,-1207.9 143.81,-1200.48 133.27,-1201.56 136.25,-1207.9"/>
</g>
<!-- 2311823669824 -->
<g id="node27" class="node">
<title>2311823669824</title>
<polygon fill="lightblue" stroke="black" points="77,-1324 23,-1324 23,-1292 77,-1292 77,-1324"/>
<text text-anchor="middle" x="50" y="-1298.5" font-family="monospace" font-size="10.00"> (128)</text>
</g>
<!-- 2311823669824&#45;&gt;2311824097584 -->
<g id="edge25" class="edge">
<title>2311823669824&#45;&gt;2311824097584</title>
<path fill="none" stroke="black" d="M50,-1291.55C50,-1284.17 50,-1275.24 50,-1267.32"/>
<polygon fill="black" stroke="black" points="53.5,-1267.41 50,-1257.41 46.5,-1267.41 53.5,-1267.41"/>
</g>
<!-- 2311824097536 -->
<g id="node28" class="node">
<title>2311824097536</title>
<polygon fill="lightgrey" stroke="black" points="212,-1256 118,-1256 118,-1236 212,-1236 212,-1256"/>
<text text-anchor="middle" x="165" y="-1242.5" font-family="monospace" font-size="10.00">ViewBackward0</text>
</g>
<!-- 2311824097536&#45;&gt;2311824097488 -->
<g id="edge26" class="edge">
<title>2311824097536&#45;&gt;2311824097488</title>
<path fill="none" stroke="black" d="M165,-1235.59C165,-1228.86 165,-1219.53 165,-1211.15"/>
<polygon fill="black" stroke="black" points="168.5,-1211.3 165,-1201.3 161.5,-1211.3 168.5,-1211.3"/>
</g>
<!-- 2311824097680 -->
<g id="node29" class="node">
<title>2311824097680</title>
<polygon fill="lightgrey" stroke="black" points="223,-1318 99,-1318 99,-1298 223,-1298 223,-1318"/>
<text text-anchor="middle" x="161" y="-1304.5" font-family="monospace" font-size="10.00">LeakyReluBackward0</text>
</g>
<!-- 2311824097680&#45;&gt;2311824097536 -->
<g id="edge27" class="edge">
<title>2311824097680&#45;&gt;2311824097536</title>
<path fill="none" stroke="black" d="M161.62,-1297.62C162.17,-1289.48 162.97,-1277.39 163.66,-1267.07"/>
<polygon fill="black" stroke="black" points="167.22,-1267.32 164.39,-1257.11 160.23,-1266.86 167.22,-1267.32"/>
</g>
<!-- 2311824097872 -->
<g id="node30" class="node">
<title>2311824097872</title>
<polygon fill="lightgrey" stroke="black" points="208,-1386 114,-1386 114,-1366 208,-1366 208,-1386"/>
<text text-anchor="middle" x="161" y="-1372.5" font-family="monospace" font-size="10.00">ViewBackward0</text>
</g>
<!-- 2311824097872&#45;&gt;2311824097680 -->
<g id="edge28" class="edge">
<title>2311824097872&#45;&gt;2311824097680</title>
<path fill="none" stroke="black" d="M161,-1365.54C161,-1356.13 161,-1341.39 161,-1329.32"/>
<polygon fill="black" stroke="black" points="164.5,-1329.44 161,-1319.44 157.5,-1329.44 164.5,-1329.44"/>
</g>
<!-- 2311824097968 -->
<g id="node31" class="node">
<title>2311824097968</title>
<polygon fill="lightgrey" stroke="black" points="211,-1448 111,-1448 111,-1428 211,-1428 211,-1448"/>
<text text-anchor="middle" x="161" y="-1434.5" font-family="monospace" font-size="10.00">AddmmBackward0</text>
</g>
<!-- 2311824097968&#45;&gt;2311824097872 -->
<g id="edge29" class="edge">
<title>2311824097968&#45;&gt;2311824097872</title>
<path fill="none" stroke="black" d="M161,-1427.62C161,-1419.48 161,-1407.39 161,-1397.07"/>
<polygon fill="black" stroke="black" points="164.5,-1397.11 161,-1387.11 157.5,-1397.11 164.5,-1397.11"/>
</g>
<!-- 2311824098064 -->
<g id="node32" class="node">
<title>2311824098064</title>
<polygon fill="lightgrey" stroke="black" points="158,-1504 58,-1504 58,-1484 158,-1484 158,-1504"/>
<text text-anchor="middle" x="108" y="-1490.5" font-family="monospace" font-size="10.00">AccumulateGrad</text>
</g>
<!-- 2311824098064&#45;&gt;2311824097968 -->
<g id="edge30" class="edge">
<title>2311824098064&#45;&gt;2311824097968</title>
<path fill="none" stroke="black" d="M117.23,-1483.59C124.68,-1476.01 135.35,-1465.13 144.29,-1456.02"/>
<polygon fill="black" stroke="black" points="146.37,-1458.89 150.87,-1449.3 141.37,-1453.98 146.37,-1458.89"/>
</g>
<!-- 2311823669664 -->
<g id="node33" class="node">
<title>2311823669664</title>
<polygon fill="lightblue" stroke="black" points="135,-1572 81,-1572 81,-1540 135,-1540 135,-1572"/>
<text text-anchor="middle" x="108" y="-1546.5" font-family="monospace" font-size="10.00"> (128)</text>
</g>
<!-- 2311823669664&#45;&gt;2311824098064 -->
<g id="edge31" class="edge">
<title>2311823669664&#45;&gt;2311824098064</title>
<path fill="none" stroke="black" d="M108,-1539.55C108,-1532.17 108,-1523.24 108,-1515.32"/>
<polygon fill="black" stroke="black" points="111.5,-1515.41 108,-1505.41 104.5,-1515.41 111.5,-1515.41"/>
</g>
<!-- 2311824098016 -->
<g id="node34" class="node">
<title>2311824098016</title>
<polygon fill="lightgrey" stroke="black" points="252,-1504 176,-1504 176,-1484 252,-1484 252,-1504"/>
<text text-anchor="middle" x="214" y="-1490.5" font-family="monospace" font-size="10.00">TBackward0</text>
</g>
<!-- 2311824098016&#45;&gt;2311824097968 -->
<g id="edge32" class="edge">
<title>2311824098016&#45;&gt;2311824097968</title>
<path fill="none" stroke="black" d="M204.77,-1483.59C197.32,-1476.01 186.65,-1465.13 177.71,-1456.02"/>
<polygon fill="black" stroke="black" points="180.63,-1453.98 171.13,-1449.3 175.63,-1458.89 180.63,-1453.98"/>
</g>
<!-- 2311824098112 -->
<g id="node35" class="node">
<title>2311824098112</title>
<polygon fill="lightgrey" stroke="black" points="264,-1566 164,-1566 164,-1546 264,-1546 264,-1566"/>
<text text-anchor="middle" x="214" y="-1552.5" font-family="monospace" font-size="10.00">AccumulateGrad</text>
</g>
<!-- 2311824098112&#45;&gt;2311824098016 -->
<g id="edge33" class="edge">
<title>2311824098112&#45;&gt;2311824098016</title>
<path fill="none" stroke="black" d="M214,-1545.62C214,-1537.48 214,-1525.39 214,-1515.07"/>
<polygon fill="black" stroke="black" points="217.5,-1515.11 214,-1505.11 210.5,-1515.11 217.5,-1515.11"/>
</g>
<!-- 2311823669584 -->
<g id="node36" class="node">
<title>2311823669584</title>
<polygon fill="lightblue" stroke="black" points="249,-1640 179,-1640 179,-1608 249,-1608 249,-1640"/>
<text text-anchor="middle" x="214" y="-1614.5" font-family="monospace" font-size="10.00"> (128, 5)</text>
</g>
<!-- 2311823669584&#45;&gt;2311824098112 -->
<g id="edge34" class="edge">
<title>2311823669584&#45;&gt;2311824098112</title>
<path fill="none" stroke="black" d="M214,-1607.69C214,-1598.6 214,-1586.95 214,-1577.12"/>
<polygon fill="black" stroke="black" points="217.5,-1577.32 214,-1567.32 210.5,-1577.32 217.5,-1577.32"/>
</g>
<!-- 2311824097344 -->
<g id="node37" class="node">
<title>2311824097344</title>
<polygon fill="lightgrey" stroke="black" points="317,-1256 241,-1256 241,-1236 317,-1236 317,-1256"/>
<text text-anchor="middle" x="279" y="-1242.5" font-family="monospace" font-size="10.00">TBackward0</text>
</g>
<!-- 2311824097344&#45;&gt;2311824097488 -->
<g id="edge35" class="edge">
<title>2311824097344&#45;&gt;2311824097488</title>
<path fill="none" stroke="black" d="M259.14,-1235.59C241.35,-1227.17 215.01,-1214.69 194.71,-1205.07"/>
<polygon fill="black" stroke="black" points="196.55,-1201.6 186.01,-1200.48 193.55,-1207.92 196.55,-1201.6"/>
</g>
<!-- 2311824097920 -->
<g id="node38" class="node">
<title>2311824097920</title>
<polygon fill="lightgrey" stroke="black" points="341,-1318 241,-1318 241,-1298 341,-1298 341,-1318"/>
<text text-anchor="middle" x="291" y="-1304.5" font-family="monospace" font-size="10.00">AccumulateGrad</text>
</g>
<!-- 2311824097920&#45;&gt;2311824097344 -->
<g id="edge36" class="edge">
<title>2311824097920&#45;&gt;2311824097344</title>
<path fill="none" stroke="black" d="M289.12,-1297.62C287.48,-1289.39 285.03,-1277.13 282.95,-1266.74"/>
<polygon fill="black" stroke="black" points="286.22,-1266.23 280.82,-1257.11 279.35,-1267.6 286.22,-1266.23"/>
</g>
<!-- 2311823669744 -->
<g id="node39" class="node">
<title>2311823669744</title>
<polygon fill="lightblue" stroke="black" points="332,-1392 250,-1392 250,-1360 332,-1360 332,-1392"/>
<text text-anchor="middle" x="291" y="-1366.5" font-family="monospace" font-size="10.00"> (128, 128)</text>
</g>
<!-- 2311823669744&#45;&gt;2311824097920 -->
<g id="edge37" class="edge">
<title>2311823669744&#45;&gt;2311824097920</title>
<path fill="none" stroke="black" d="M291,-1359.69C291,-1350.6 291,-1338.95 291,-1329.12"/>
<polygon fill="black" stroke="black" points="294.5,-1329.32 291,-1319.32 287.5,-1329.32 294.5,-1329.32"/>
</g>
<!-- 2311824084464 -->
<g id="node40" class="node">
<title>2311824084464</title>
<polygon fill="lightgrey" stroke="black" points="321,-1008 245,-1008 245,-988 321,-988 321,-1008"/>
<text text-anchor="middle" x="283" y="-994.5" font-family="monospace" font-size="10.00">TBackward0</text>
</g>
<!-- 2311824084464&#45;&gt;2311824084656 -->
<g id="edge38" class="edge">
<title>2311824084464&#45;&gt;2311824084656</title>
<path fill="none" stroke="black" d="M263.14,-987.59C245.35,-979.17 219.01,-966.69 198.71,-957.07"/>
<polygon fill="black" stroke="black" points="200.55,-953.6 190.01,-952.48 197.55,-959.92 200.55,-953.6"/>
</g>
<!-- 2311824084896 -->
<g id="node41" class="node">
<title>2311824084896</title>
<polygon fill="lightgrey" stroke="black" points="345,-1070 245,-1070 245,-1050 345,-1050 345,-1070"/>
<text text-anchor="middle" x="295" y="-1056.5" font-family="monospace" font-size="10.00">AccumulateGrad</text>
</g>
<!-- 2311824084896&#45;&gt;2311824084464 -->
<g id="edge39" class="edge">
<title>2311824084896&#45;&gt;2311824084464</title>
<path fill="none" stroke="black" d="M293.12,-1049.62C291.48,-1041.39 289.03,-1029.13 286.95,-1018.74"/>
<polygon fill="black" stroke="black" points="290.22,-1018.23 284.82,-1009.11 283.35,-1019.6 290.22,-1018.23"/>
</g>
<!-- 2311823669904 -->
<g id="node42" class="node">
<title>2311823669904</title>
<polygon fill="lightblue" stroke="black" points="333,-1144 257,-1144 257,-1112 333,-1112 333,-1144"/>
<text text-anchor="middle" x="295" y="-1118.5" font-family="monospace" font-size="10.00"> (64, 128)</text>
</g>
<!-- 2311823669904&#45;&gt;2311824084896 -->
<g id="edge40" class="edge">
<title>2311823669904&#45;&gt;2311824084896</title>
<path fill="none" stroke="black" d="M295,-1111.69C295,-1102.6 295,-1090.95 295,-1081.12"/>
<polygon fill="black" stroke="black" points="298.5,-1081.32 295,-1071.32 291.5,-1081.32 298.5,-1081.32"/>
</g>
<!-- 2311824083024 -->
<g id="node43" class="node">
<title>2311824083024</title>
<polygon fill="lightgrey" stroke="black" points="323,-760 247,-760 247,-740 323,-740 323,-760"/>
<text text-anchor="middle" x="285" y="-746.5" font-family="monospace" font-size="10.00">TBackward0</text>
</g>
<!-- 2311824083024&#45;&gt;2311824084176 -->
<g id="edge41" class="edge">
<title>2311824083024&#45;&gt;2311824084176</title>
<path fill="none" stroke="black" d="M265.49,-739.59C248.09,-731.21 222.37,-718.8 202.46,-709.21"/>
<polygon fill="black" stroke="black" points="204.19,-705.67 193.66,-704.48 201.15,-711.98 204.19,-705.67"/>
</g>
<!-- 2311824084608 -->
<g id="node44" class="node">
<title>2311824084608</title>
<polygon fill="lightgrey" stroke="black" points="349,-822 249,-822 249,-802 349,-802 349,-822"/>
<text text-anchor="middle" x="299" y="-808.5" font-family="monospace" font-size="10.00">AccumulateGrad</text>
</g>
<!-- 2311824084608&#45;&gt;2311824083024 -->
<g id="edge42" class="edge">
<title>2311824084608&#45;&gt;2311824083024</title>
<path fill="none" stroke="black" d="M296.81,-801.62C294.89,-793.39 292.03,-781.13 289.61,-770.74"/>
<polygon fill="black" stroke="black" points="292.81,-770.06 287.13,-761.11 285.99,-771.65 292.81,-770.06"/>
</g>
<!-- 2311823670064 -->
<g id="node45" class="node">
<title>2311823670064</title>
<polygon fill="lightblue" stroke="black" points="331,-896 267,-896 267,-864 331,-864 331,-896"/>
<text text-anchor="middle" x="299" y="-870.5" font-family="monospace" font-size="10.00"> (1, 64)</text>
</g>
<!-- 2311823670064&#45;&gt;2311824084608 -->
<g id="edge43" class="edge">
<title>2311823670064&#45;&gt;2311824084608</title>
<path fill="none" stroke="black" d="M299,-863.69C299,-854.6 299,-842.95 299,-833.12"/>
<polygon fill="black" stroke="black" points="302.5,-833.32 299,-823.32 295.5,-833.32 302.5,-833.32"/>
</g>
</g>
</svg>
